HIERARCHY
ROOT joint_Root
{
	OFFSET 0.0 0.0 0.0
	CHANNELS 6 Xposition Yposition Zposition Zrotation Xrotation Yrotation 
	JOINT Hips
	{
		OFFSET -0.726466 93.3139 -2.00062
		CHANNELS 6 Xposition Yposition Zposition Zrotation Xrotation Yrotation 
		JOINT Spine
		{
			OFFSET 15.7357 0.0 0.0
			CHANNELS 6 Xposition Yposition Zposition Zrotation Xrotation Yrotation 
			JOINT Chest
			{
				OFFSET 8.98455 -0.406207 0.0
				CHANNELS 6 Xposition Yposition Zposition Zrotation Xrotation Yrotation 
				JOINT Neck
				{
					OFFSET 16.3773 0.0 0.0
					CHANNELS 6 Xposition Yposition Zposition Zrotation Xrotation Yrotation 
					JOINT Head
					{
						OFFSET 6.45672 0.0 0.0
						CHANNELS 6 Xposition Yposition Zposition Zrotation Xrotation Yrotation 
						End Site
						{
							OFFSET 0.0 0.0 0.0
						}
					}
				}
				JOINT Shoulder_L
				{
					OFFSET 12.9942 -0.242716 4.98039
					CHANNELS 6 Xposition Yposition Zposition Zrotation Xrotation Yrotation 
					JOINT UpperArm_L
					{
						OFFSET 5.34809 0.0 0.0
						CHANNELS 6 Xposition Yposition Zposition Zrotation Xrotation Yrotation 
						JOINT LowerArm_L
						{
							OFFSET 24.3286 1.87007e-05 0.0
							CHANNELS 6 Xposition Yposition Zposition Zrotation Xrotation Yrotation 
							JOINT Hand_L
							{
								OFFSET 22.2916 0.0 0.0
								CHANNELS 6 Xposition Yposition Zposition Zrotation Xrotation Yrotation 
								End Site
								{
									OFFSET 0.0 0.0 0.0
								}
							}
						}
					}
				}
				JOINT Shoulder_R
				{
					OFFSET 12.9945 -0.242716 -4.98039
					CHANNELS 6 Xposition Yposition Zposition Zrotation Xrotation Yrotation 
					JOINT UpperArm_R
					{
						OFFSET -5.34813 0.0 0.0
						CHANNELS 6 Xposition Yposition Zposition Zrotation Xrotation Yrotation 
						JOINT LowerArm_R
						{
							OFFSET -24.3289 0.000322201 0.0
							CHANNELS 6 Xposition Yposition Zposition Zrotation Xrotation Yrotation 
							JOINT Hand_R
							{
								OFFSET -22.2915 -0.000108084 0.0
								CHANNELS 6 Xposition Yposition Zposition Zrotation Xrotation Yrotation 
								End Site
								{
									OFFSET 0.0 0.0 0.0
								}
							}
						}
					}
				}
			}
		}
		JOINT UpperLeg_L
		{
			OFFSET -2.19248 -6.46944 0.0
			CHANNELS 6 Xposition Yposition Zposition Zrotation Xrotation Yrotation 
			JOINT LowerLeg_L
			{
				OFFSET 39.0811 0.0 -1.23785e-05
				CHANNELS 6 Xposition Yposition Zposition Zrotation Xrotation Yrotation 
				JOINT Foot_L
				{
					OFFSET 40.9854 0.0 -1.26872e-05
					CHANNELS 6 Xposition Yposition Zposition Zrotation Xrotation Yrotation 
					JOINT Toes_L
					{
						OFFSET 11.7543 0.0 0.0
						CHANNELS 6 Xposition Yposition Zposition Zrotation Xrotation Yrotation 
						End Site
						{
							OFFSET 0.0 0.0 0.0
						}
					}
				}
			}
		}
		JOINT UpperLeg_R
		{
			OFFSET -2.19251 6.46944 0.0
			CHANNELS 6 Xposition Yposition Zposition Zrotation Xrotation Yrotation 
			JOINT LowerLeg_R
			{
				OFFSET -39.0811 -0.00228153 -0.0401928
				CHANNELS 6 Xposition Yposition Zposition Zrotation Xrotation Yrotation 
				JOINT Foot_R
				{
					OFFSET -40.9854 0.0 0.0
					CHANNELS 6 Xposition Yposition Zposition Zrotation Xrotation Yrotation 
					JOINT Toes_R
					{
						OFFSET -11.7543 0.0 0.0
						CHANNELS 6 Xposition Yposition Zposition Zrotation Xrotation Yrotation 
						End Site
						{
							OFFSET 0.0 0.0 0.0
						}
					}
				}
			}
		}
	}
}
MOTION
Frames:	6
Frame Time:	0.0333333
0.000000 0.000000 0.000000 0.000000 0.000000 -0.000000 107.044000 85.226500 182.558000 -81.359200 52.756600 178.361000 15.735700 0.000005 -0.000001 115.604000 80.004200 -114.634000 8.984550 -0.406207 -0.000000 10.274600 8.603490 1.167480 16.377300 -0.000001 -0.000001 12.398300 7.571970 1.844930 6.456720 -0.000001 -0.000000 4.565080 5.559470 0.701069 12.994200 -0.242716 4.980390 -87.837200 -3.918380 -61.072100 5.348090 -0.000007 -0.000001 -69.802300 7.917570 13.644200 24.328600 0.000019 0.000005 5.858410 12.581100 -25.223500 22.291600 -0.000001 0.000005 2.638990 5.515730 -7.180940 12.994500 -0.242716 -4.980390 89.564800 1.253380 -70.850500 -5.348130 -0.000001 -0.000004 -39.453100 6.041130 -44.781600 -24.328900 0.000322 -0.000009 1.519000 1.461720 -46.132700 -22.291500 -0.000108 -0.000004 9.174390 5.531240 -7.848930 -2.192480 -6.469440 -0.000000 178.097000 -24.759000 -36.759300 39.081100 -0.000007 -0.000012 0.152277 -0.185462 39.388100 40.985400 -0.000006 -0.000013 9.314420 -13.563900 -51.084200 11.754300 -0.000000 0.000003 -0.005605 -0.067213 -19.311900 -2.192510 6.469440 -0.000001 162.703000 20.927800 -166.829000 -39.081100 -0.002282 -0.040193 -0.201233 0.311361 33.300500 -40.985400 0.000008 0.000006 -17.007600 -5.302520 -66.578700 -11.754300 -0.000006 -0.000006 -4.050330 -4.077120 -25.937100
0.000000 0.000000 0.000000 0.000000 0.000000 -0.000000 109.661000 84.700800 178.227000 -83.424400 53.604400 -179.214000 15.735700 0.000005 -0.000001 116.201000 79.582700 -116.039000 8.984550 -0.406207 -0.000000 11.017200 9.134910 -0.559984 16.377300 -0.000001 -0.000001 12.181900 7.671830 1.792630 6.456720 -0.000001 -0.000000 4.319860 5.761950 0.997277 12.994200 -0.242716 4.980390 -87.960500 -3.693200 -61.064000 5.348090 -0.000007 -0.000001 -70.777500 8.335210 12.654400 24.328600 0.000019 0.000005 5.858070 13.761900 -23.331500 22.291600 -0.000001 0.000005 2.575240 5.508320 -6.871210 12.994500 -0.242716 -4.980390 89.478500 1.493770 -70.752300 -5.348130 -0.000001 -0.000004 -41.948000 8.179600 -42.440800 -24.328900 0.000322 -0.000009 1.557430 1.361880 -48.865300 -22.291500 -0.000108 -0.000004 9.349170 5.537650 -8.136340 -2.192480 -6.469440 -0.000000 178.109000 -23.220900 -35.630400 39.081100 -0.000007 -0.000012 -0.105127 0.098636 46.825500 40.985400 -0.000006 -0.000013 6.543440 -15.258900 -58.237400 11.754300 -0.000000 0.000003 -0.001655 -0.024321 -17.565700 -2.192510 6.469440 -0.000001 159.420000 17.408900 -166.246000 -39.081100 -0.002282 -0.040193 -0.114401 0.157455 36.775800 -40.985400 0.000008 0.000006 -16.850300 -5.941010 -61.175900 -11.754300 -0.000006 -0.000006 -0.053551 -0.310203 -29.361700
0.000000 0.000000 0.000000 0.000000 0.000000 -0.000000 112.067000 84.504800 173.805000 -84.459000 53.617100 -177.976000 15.735700 0.000005 -0.000001 116.587000 79.547200 -116.797000 8.984550 -0.406207 -0.000000 11.052100 9.280800 -1.320490 16.377300 -0.000001 -0.000001 12.423900 7.924350 1.560310 6.456720 -0.000001 -0.000000 4.434540 6.200450 0.775762 12.994200 -0.242716 4.980390 -88.038300 -3.544790 -61.014700 5.348090 -0.000007 -0.000001 -72.259300 9.650700 10.833800 24.328600 0.000019 0.000005 5.767750 14.834600 -21.530200 22.291600 -0.000001 0.000005 2.151330 5.501680 -6.601210 12.994500 -0.242716 -4.980390 89.531400 1.343450 -70.767700 -5.348130 -0.000001 -0.000004 -44.260600 11.871500 -38.799800 -24.328900 0.000322 -0.000009 0.930968 0.757911 -50.894400 -22.291500 -0.000108 -0.000004 9.018680 5.540140 -8.249200 -2.192480 -6.469440 -0.000000 177.434000 -23.640200 -33.652700 39.081100 -0.000007 -0.000012 -0.251429 0.203136 51.065100 40.985400 -0.000006 -0.000013 5.287050 -15.573800 -64.301700 11.754300 -0.000000 0.000003 -0.000076 -0.001275 -16.629300 -2.192510 6.469440 -0.000001 158.123000 13.954800 -168.109000 -39.081100 -0.002282 -0.040193 0.076637 -0.081627 41.948000 -40.985400 0.000008 0.000006 -13.675800 -8.789460 -52.406700 -11.754300 -0.000006 -0.000006 -0.092727 -0.426142 -34.324600
0.000000 0.000000 0.000000 0.000000 0.000000 -0.000000 114.205000 84.644800 169.828000 -83.785000 52.332800 -178.084000 15.735700 0.000005 -0.000001 114.866000 79.782400 -114.900000 8.984550 -0.406207 -0.000000 10.865200 8.529850 -0.879613 16.377300 -0.000001 -0.000001 12.087700 8.444800 1.022500 6.456720 -0.000001 -0.000000 4.942180 7.253920 0.525957 12.994200 -0.242716 4.980390 -88.108400 -3.407680 -60.942600 5.348090 -0.000007 -0.000001 -73.934200 11.630900 8.966990 24.328600 0.000019 0.000005 5.668800 14.527600 -21.589800 22.291600 -0.000001 0.000005 1.822150 5.512540 -7.046970 12.994500 -0.242716 -4.980390 89.639000 1.033260 -70.740600 -5.348130 -0.000001 -0.000004 -45.818800 16.997700 -35.519100 -24.328900 0.000322 -0.000009 0.966466 0.788190 -50.845700 -22.291500 -0.000108 -0.000004 8.126200 5.545820 -8.512800 -2.192480 -6.469440 -0.000000 177.728000 -24.056200 -30.799400 39.081100 -0.000007 -0.000012 -0.373892 0.281482 53.026800 40.985400 -0.000006 -0.000013 4.917250 -14.622100 -68.959400 11.754300 -0.000000 0.000003 -0.000006 -0.000079 -16.580600 -2.192510 6.469440 -0.000001 160.695000 9.498260 -171.776000 -39.081100 -0.002282 -0.040193 0.245633 -0.215038 48.421100 -40.985400 0.000008 0.000006 -5.030640 -14.315100 -42.026200 -11.754300 -0.000006 -0.000006 -0.047536 -0.288861 -28.462800
0.000000 0.000000 0.000000 0.000000 0.000000 -0.000000 116.167000 85.090200 166.336000 -84.299800 49.698100 -177.985000 15.735700 0.000005 -0.000001 111.301000 80.245100 -111.332000 8.984550 -0.406207 -0.000000 10.470600 7.038440 -0.706932 16.377300 -0.000001 -0.000001 11.482700 8.570350 0.652468 6.456720 -0.000001 -0.000000 4.855340 8.376030 0.316242 12.994200 -0.242716 4.980390 -88.057900 -3.602070 -61.643000 5.348090 -0.000007 -0.000001 -75.473100 14.652100 6.491920 24.328600 0.000019 0.000005 5.320180 12.363300 -23.510000 22.291600 -0.000001 0.000005 1.802090 5.530840 -7.826510 12.994500 -0.242716 -4.980390 89.663000 0.941311 -70.299900 -5.348130 -0.000001 -0.000004 -46.858100 22.650000 -32.635000 -24.328900 0.000322 -0.000009 1.807380 1.563100 -49.187000 -22.291500 -0.000108 -0.000004 6.981650 5.552440 -8.822980 -2.192480 -6.469440 -0.000000 177.208000 -22.734800 -27.892500 39.081100 -0.000007 -0.000012 -0.436452 0.331512 52.782100 40.985400 -0.000006 -0.000013 4.729480 -13.785600 -72.007600 11.754300 -0.000000 0.000003 -0.000016 -0.000203 -16.585500 -2.192510 6.469440 -0.000001 163.324000 6.991830 -175.851000 -39.081100 -0.002282 -0.040193 0.268137 -0.187306 54.737800 -40.985400 0.000008 0.000006 2.498190 -13.734000 -36.729000 -11.754300 -0.000006 -0.000006 -0.018532 -0.159017 -23.067300
0.000000 0.000000 0.000000 0.000000 0.000000 -0.000000 118.129000 85.764100 162.986000 -84.769800 45.936700 -177.901000 15.735700 0.000005 -0.000001 106.103000 80.744500 -106.002000 8.984550 -0.406207 -0.000000 10.043500 5.103650 -0.247503 16.377300 -0.000001 -0.000001 11.131300 8.277600 0.457158 6.456720 -0.000001 -0.000000 4.837970 9.230080 0.100838 12.994200 -0.242716 4.980390 -88.099800 -3.693960 -62.753900 5.348090 -0.000007 -0.000001 -75.712400 19.566300 3.369820 24.328600 0.000019 0.000005 4.853550 9.534160 -27.149100 22.291600 -0.000001 0.000005 2.547760 5.548900 -8.649790 12.994500 -0.242716 -4.980390 89.574400 1.149040 -69.676800 -5.348130 -0.000001 -0.000004 -47.561600 28.273000 -29.447900 -24.328900 0.000322 -0.000009 2.715230 2.571760 -46.605000 -22.291500 -0.000108 -0.000004 6.155430 5.558050 -9.092280 -2.192480 -6.469440 -0.000000 176.882000 -20.012200 -24.289000 39.081100 -0.000007 -0.000012 -0.455044 0.366237 51.172600 40.985400 -0.000006 -0.000013 4.566700 -13.018300 -74.149500 11.754300 -0.000000 0.000003 -0.000023 -0.000288 -16.588800 -2.192510 6.469440 -0.000001 165.637000 5.725230 -179.767000 -39.081100 -0.002282 -0.040193 0.247257 -0.132396 61.522100 -40.985400 0.000008 0.000006 1.321320 -5.647210 -42.467600 -11.754300 -0.000006 -0.000006 -0.019461 -0.164287 -23.284200
